<?xml version="1.0" encoding="utf-8"?>
<!-- Generator: Adobe Illustrator 18.0.0, SVG Export Plug-In . SVG Version: 6.00 Build 0)  -->
<!DOCTYPE svg PUBLIC "-//W3C//DTD SVG 1.1//EN" "http://www.w3.org/Graphics/SVG/1.1/DTD/svg11.dtd">
<svg version="1.1" id="Arrow_1_" xmlns="http://www.w3.org/2000/svg" xmlns:xlink="http://www.w3.org/1999/xlink" x="0px" y="0px"
	 width="500px" height="500px" viewBox="0 0 500 500" enable-background="new 0 0 500 500" xml:space="preserve">
  <metadata>
    <?xpacket begin="﻿" id="W5M0MpCehiHzreSzNTczkc9d"?>
    <x:xmpmeta xmlns:x="adobe:ns:meta/" x:xmptk="Adobe XMP Core 5.6-c011 79.156380, 2014/06/19-23:40:37        ">
     <rdf:RDF xmlns:rdf="http://www.w3.org/1999/02/22-rdf-syntax-ns#">
      <rdf:Description rdf:about=""
        xmlns:xmpMM="http://ns.adobe.com/xap/1.0/mm/"
        xmlns:stEvt="http://ns.adobe.com/xap/1.0/sType/ResourceEvent#"
        xmlns:xmp="http://ns.adobe.com/xap/1.0/"
        xmlns:xmpRights="http://ns.adobe.com/xap/1.0/rights/"
        xmlns:dc="http://purl.org/dc/elements/1.1/"
       xmpMM:DocumentID="xmp.did:c7904769542132f757e805dd6510396c"
       xmpMM:OriginalDocumentID="xmp.did:c7904769542132f757e805dd6510396c"
       xmpMM:InstanceID="xmp.iid:c7904769542132f757e805dd6510396c"
       xmp:ModifyDate="2015-04-14T18:30:47+02:00"
       xmp:MetadataDate="2015-04-14T18:30:47+02:00"
       xmpRights:Marked="True"
       xmpRights:WebStatement="http://www.adobe.com/legal/general-terms.html">
       <xmpMM:History>
        <rdf:Seq>
         <rdf:li
          stEvt:action="saved"
          stEvt:instanceID="xmp.iid:c7904769542132f757e805dd6510396c"
          stEvt:when="2015-04-14T18:30:47+02:00"/>
        </rdf:Seq>
       </xmpMM:History>
       <xmpRights:UsageTerms>
        <rdf:Alt>
         <rdf:li xml:lang="x-default">This work is licensed under the Adobe General Terms of Use http://www.adobe.com/legal/general-terms.html.</rdf:li>
        </rdf:Alt>
       </xmpRights:UsageTerms>
       <dc:publisher>
        <rdf:Bag>
         <rdf:li>Adobe Systems Incorporated</rdf:li>
        </rdf:Bag>
       </dc:publisher>
      </rdf:Description>
     </rdf:RDF>
    </x:xmpmeta>
    <?xpacket end="r"?>
  </metadata>
<g>
	<g>
		<path d="M499.7,255.7c0.1-1.9,0.3-3.8,0.3-5.7c0-40.7-10-79-27.3-113c0.1-0.5,0.3-0.9,0.3-1.4c0-5.3-3.2-9.9-7.7-12.1
			C421.8,49.8,341.7,0,250,0C112.2,0,0,112.2,0,250c0,137.8,112.2,250,250,250c134.6,0,244.5-107.1,249.5-240.5
			c0.1-0.8,0.5-1.5,0.5-2.4C500,256.6,499.8,256.2,499.7,255.7z M440.8,365.1h-72.6c12.8-29.8,20.7-61.6,23.1-94.5H472
			C468.8,305,457.7,337,440.8,365.1z M28,270.6h81.4c2.3,32.8,10.3,64.6,23.1,94.5H59.2C42.3,337,31.2,305,28,270.6z M51.6,148.5
			c1,0.3,2,0.6,3.1,0.6h72.2c-11.1,30-17.3,61.9-18,94.5H27.3C28.3,209.4,36.9,177.2,51.6,148.5z M263.9,122.2V40.7
			c28.2,22.9,51.2,50.6,68.1,81.5H263.9z M344.9,149.2c12.3,29.8,19.2,61.7,20,94.5h-101v-94.5H344.9z M236.9,40.7v81.5h-68.2
			C185.6,91.4,208.7,63.7,236.9,40.7z M236.9,149.2v94.5h-101c0.8-32.8,7.7-64.7,20-94.5H236.9z M136.6,270.6h100.3v94.5h-74.7
			C148,335.6,139.2,303.6,136.6,270.6z M236.9,392.1v67.2c-23.8-19.3-43.9-42.1-59.8-67.2H236.9z M263.9,459.3v-67.2h59.9
			C307.8,417.3,287.6,440,263.9,459.3z M263.9,365.1v-94.5h100.3c-2.6,33-11.4,65-25.6,94.5H263.9z M391.9,243.6
			c-0.7-32.6-6.9-64.4-18-94.5h74.9c14.5,28.5,23,60.5,24,94.5H391.9z M432.6,122.2h-70.3c-16.5-33.9-39.4-64.7-67.9-90.8
			C351.4,43,400.4,76.2,432.6,122.2z M206.5,31.3c-28.6,26.1-51.6,57-68.1,90.9H67.4C99.8,76,149.1,42.7,206.5,31.3z M78.1,392.1
			h67.7c15.7,28.3,36.2,54.2,60.6,76.6C155.2,458.5,110.2,430.9,78.1,392.1z M294.4,468.6c24.5-22.3,44.9-48.2,60.6-76.5h66.9
			C390,430.6,345.4,458.3,294.4,468.6z"/>
	</g>
</g>
</svg>
