<?xml version="1.0" encoding="utf-8"?>
<!-- Generator: Adobe Illustrator 18.0.0, SVG Export Plug-In . SVG Version: 6.00 Build 0)  -->
<!DOCTYPE svg PUBLIC "-//W3C//DTD SVG 1.1 Basic//EN" "http://www.w3.org/Graphics/SVG/1.1/DTD/svg11-basic.dtd">
<svg version="1.1" baseProfile="basic" id="Arrow_1_"
	 xmlns="http://www.w3.org/2000/svg" xmlns:xlink="http://www.w3.org/1999/xlink" x="0px" y="0px" width="500px" height="500px"
	 viewBox="0 0 500 500" xml:space="preserve">
  <metadata>
    <?xpacket begin="﻿" id="W5M0MpCehiHzreSzNTczkc9d"?>
    <x:xmpmeta xmlns:x="adobe:ns:meta/" x:xmptk="Adobe XMP Core 5.6-c011 79.156380, 2014/06/19-23:40:37        ">
     <rdf:RDF xmlns:rdf="http://www.w3.org/1999/02/22-rdf-syntax-ns#">
      <rdf:Description rdf:about=""
        xmlns:xmpMM="http://ns.adobe.com/xap/1.0/mm/"
        xmlns:stEvt="http://ns.adobe.com/xap/1.0/sType/ResourceEvent#"
        xmlns:xmp="http://ns.adobe.com/xap/1.0/"
        xmlns:xmpRights="http://ns.adobe.com/xap/1.0/rights/"
        xmlns:dc="http://purl.org/dc/elements/1.1/"
       xmpMM:DocumentID="xmp.did:dc1546b7024ad306731f7cf8be4e6f92"
       xmpMM:OriginalDocumentID="xmp.did:dc1546b7024ad306731f7cf8be4e6f92"
       xmpMM:InstanceID="xmp.iid:dc1546b7024ad306731f7cf8be4e6f92"
       xmp:ModifyDate="2015-04-08T16:17:57+02:00"
       xmp:MetadataDate="2015-04-08T16:17:57+02:00"
       xmpRights:Marked="True"
       xmpRights:WebStatement="http://www.adobe.com/legal/general-terms.html">
       <xmpMM:History>
        <rdf:Seq>
         <rdf:li
          stEvt:action="saved"
          stEvt:instanceID="xmp.iid:dc1546b7024ad306731f7cf8be4e6f92"
          stEvt:when="2015-04-08T16:17:57+02:00"/>
        </rdf:Seq>
       </xmpMM:History>
       <xmpRights:UsageTerms>
        <rdf:Alt>
         <rdf:li xml:lang="x-default">This work is licensed under the Adobe General Terms of Use http://www.adobe.com/legal/general-terms.html.</rdf:li>
        </rdf:Alt>
       </xmpRights:UsageTerms>
       <dc:publisher>
        <rdf:Bag>
         <rdf:li>Adobe Systems Incorporated</rdf:li>
        </rdf:Bag>
       </dc:publisher>
      </rdf:Description>
     </rdf:RDF>
    </x:xmpmeta>
    <?xpacket end="r"?>
  </metadata>
<g>
	<g>
		<g>
			<defs>
				<rect id="SVGID_1_" width="500" height="500"/>
			</defs>
			<clipPath id="SVGID_2_">
				<use xlink:href="#SVGID_1_"  overflow="visible"/>
			</clipPath>
			<path clip-path="url(#SVGID_2_)" d="M468.8,0H31.2C14,0,0,14,0,31.2v437.5C0,486,14,500,31.2,500h437.5c17.3,0,31.2-14,31.2-31.2
				V31.2C500,14,486,0,468.8,0 M93.8,468.8H31.2V31.2h62.5v437.6H93.8z M375,468.8H109.4V31.2H375V468.8z M421.9,468.8h-31.2V31.2
				h31.2V468.8z M468.8,468.8h-31.2V31.2h31.2V468.8z"/>
		</g>
	</g>
	<g>
		<g>
			<defs>
				<rect id="SVGID_3_" width="500" height="500"/>
			</defs>
			<clipPath id="SVGID_4_">
				<use xlink:href="#SVGID_3_"  overflow="visible"/>
			</clipPath>
			<path clip-path="url(#SVGID_4_)" d="M182.5,387.8c6.6,5.8,13.6,9.5,20,11.6l0,0l19.4,6.1c8.2,2.6,16.9-1.7,19.3-9.5l17.7-56.6
				c2.4-7.8-2.3-16.2-10.5-18.8l-29.8-9.3c0.9-16,4.7-39,15-71.9s20.2-54,28.6-67.7L292,181c8.2,2.6,16.9-1.7,19.3-9.5l17.7-56.6
				c2.5-7.8-2.3-16.2-10.5-18.8l-19.4-6l0,0c-6.5-1.9-14.4-2.8-23.1-1.8c-5.1,0.6-10.4,1.7-15.9,3.8
				c-35.1,13.4-63.3,55.5-86.1,128.7c-22.9,73.2-23.6,123.9-2.3,154.8C175,380.4,178.7,384.4,182.5,387.8"/>
		</g>
	</g>
</g>
</svg>
